<svg width="107" height="92" viewBox="0 0 107 92" fill="none" xmlns="http://www.w3.org/2000/svg">
<g id="Group 3">
<ellipse id="Ellipse 1" cx="4.22024" cy="3.5" rx="3.37948" ry="3.5" fill="#F5F6F8" fill-opacity="0.6"/>
<ellipse id="Ellipse 8" cx="4.22024" cy="20.5" rx="3.37948" ry="3.5" fill="#F5F6F8" fill-opacity="0.6"/>
<ellipse id="Ellipse 15" cx="4.22024" cy="37.5" rx="3.37948" ry="3.5" fill="#F5F6F8" fill-opacity="0.6"/>
<ellipse id="Ellipse 22" cx="4.22024" cy="54.5" rx="3.37948" ry="3.5" fill="#F5F6F8" fill-opacity="0.6"/>
<ellipse id="Ellipse 29" cx="4.22024" cy="71.5" rx="3.37948" ry="3.5" fill="#F5F6F8" fill-opacity="0.6"/>
<ellipse id="Ellipse 36" cx="4.22024" cy="88.5" rx="3.37948" ry="3.5" fill="#F5F6F8" fill-opacity="0.6"/>
<ellipse id="Ellipse 2" cx="20.6349" cy="3.5" rx="3.37948" ry="3.5" fill="#F5F6F8" fill-opacity="0.6"/>
<ellipse id="Ellipse 9" cx="20.6349" cy="20.5" rx="3.37948" ry="3.5" fill="#F5F6F8" fill-opacity="0.6"/>
<ellipse id="Ellipse 16" cx="20.6349" cy="37.5" rx="3.37948" ry="3.5" fill="#F5F6F8" fill-opacity="0.6"/>
<ellipse id="Ellipse 23" cx="20.6349" cy="54.5" rx="3.37948" ry="3.5" fill="#F5F6F8" fill-opacity="0.6"/>
<ellipse id="Ellipse 30" cx="20.6349" cy="71.5" rx="3.37948" ry="3.5" fill="#F5F6F8" fill-opacity="0.6"/>
<ellipse id="Ellipse 37" cx="20.6349" cy="88.5" rx="3.37948" ry="3.5" fill="#F5F6F8" fill-opacity="0.6"/>
<ellipse id="Ellipse 3" cx="37.0495" cy="3.5" rx="3.37948" ry="3.5" fill="#F5F6F8" fill-opacity="0.6"/>
<ellipse id="Ellipse 10" cx="37.0495" cy="20.5" rx="3.37948" ry="3.5" fill="#F5F6F8" fill-opacity="0.6"/>
<ellipse id="Ellipse 17" cx="37.0495" cy="37.5" rx="3.37948" ry="3.5" fill="#F5F6F8" fill-opacity="0.6"/>
<ellipse id="Ellipse 24" cx="37.0495" cy="54.5" rx="3.37948" ry="3.5" fill="#F5F6F8" fill-opacity="0.6"/>
<ellipse id="Ellipse 31" cx="37.0495" cy="71.5" rx="3.37948" ry="3.5" fill="#F5F6F8" fill-opacity="0.6"/>
<ellipse id="Ellipse 38" cx="37.0495" cy="88.5" rx="3.37948" ry="3.5" fill="#F5F6F8" fill-opacity="0.6"/>
<ellipse id="Ellipse 4" cx="53.4641" cy="3.5" rx="3.37948" ry="3.5" fill="#F5F6F8" fill-opacity="0.6"/>
<ellipse id="Ellipse 11" cx="53.4641" cy="20.5" rx="3.37948" ry="3.5" fill="#F5F6F8" fill-opacity="0.6"/>
<ellipse id="Ellipse 18" cx="53.4641" cy="37.5" rx="3.37948" ry="3.5" fill="#F5F6F8" fill-opacity="0.6"/>
<ellipse id="Ellipse 25" cx="53.4641" cy="54.5" rx="3.37948" ry="3.5" fill="#F5F6F8" fill-opacity="0.6"/>
<ellipse id="Ellipse 32" cx="53.4641" cy="71.5" rx="3.37948" ry="3.5" fill="#F5F6F8" fill-opacity="0.6"/>
<ellipse id="Ellipse 39" cx="53.4641" cy="88.5" rx="3.37948" ry="3.5" fill="#F5F6F8" fill-opacity="0.6"/>
<ellipse id="Ellipse 5" cx="69.8788" cy="3.5" rx="3.37948" ry="3.5" fill="#F5F6F8" fill-opacity="0.6"/>
<ellipse id="Ellipse 12" cx="69.8788" cy="20.5" rx="3.37948" ry="3.5" fill="#F5F6F8" fill-opacity="0.6"/>
<ellipse id="Ellipse 19" cx="69.8788" cy="37.5" rx="3.37948" ry="3.5" fill="#F5F6F8" fill-opacity="0.6"/>
<ellipse id="Ellipse 26" cx="69.8788" cy="54.5" rx="3.37948" ry="3.5" fill="#F5F6F8" fill-opacity="0.6"/>
<ellipse id="Ellipse 33" cx="69.8788" cy="71.5" rx="3.37948" ry="3.5" fill="#F5F6F8" fill-opacity="0.6"/>
<ellipse id="Ellipse 40" cx="69.8788" cy="88.5" rx="3.37948" ry="3.5" fill="#F5F6F8" fill-opacity="0.6"/>
<ellipse id="Ellipse 6" cx="86.2934" cy="3.5" rx="3.37948" ry="3.5" fill="#F5F6F8" fill-opacity="0.6"/>
<ellipse id="Ellipse 13" cx="86.2934" cy="20.5" rx="3.37948" ry="3.5" fill="#F5F6F8" fill-opacity="0.6"/>
<ellipse id="Ellipse 20" cx="86.2934" cy="37.5" rx="3.37948" ry="3.5" fill="#F5F6F8" fill-opacity="0.6"/>
<ellipse id="Ellipse 27" cx="86.2934" cy="54.5" rx="3.37948" ry="3.5" fill="#F5F6F8" fill-opacity="0.6"/>
<ellipse id="Ellipse 34" cx="86.2934" cy="71.5" rx="3.37948" ry="3.5" fill="#F5F6F8" fill-opacity="0.6"/>
<ellipse id="Ellipse 41" cx="86.2934" cy="88.5" rx="3.37948" ry="3.5" fill="#F5F6F8" fill-opacity="0.6"/>
<ellipse id="Ellipse 7" cx="102.708" cy="3.5" rx="3.37948" ry="3.5" fill="#F5F6F8" fill-opacity="0.6"/>
<ellipse id="Ellipse 14" cx="102.708" cy="20.5" rx="3.37948" ry="3.5" fill="#F5F6F8" fill-opacity="0.6"/>
<ellipse id="Ellipse 21" cx="102.708" cy="37.5" rx="3.37948" ry="3.5" fill="#F5F6F8" fill-opacity="0.6"/>
<ellipse id="Ellipse 28" cx="102.708" cy="54.5" rx="3.37948" ry="3.5" fill="#F5F6F8" fill-opacity="0.6"/>
<ellipse id="Ellipse 35" cx="102.708" cy="71.5" rx="3.37948" ry="3.5" fill="#F5F6F8" fill-opacity="0.6"/>
<ellipse id="Ellipse 42" cx="102.708" cy="88.5" rx="3.37948" ry="3.5" fill="#F5F6F8" fill-opacity="0.6"/>
</g>
</svg>
